<svg id="visual" viewBox="0 0 960 540" width="960" height="540" xmlns="http://www.w3.org/2000/svg" xmlns:xlink="http://www.w3.org/1999/xlink" version="1.1"><rect x="0" y="0" width="960" height="540" fill="#010307"></rect><path d="M0 170L80 164L160 176L240 181L320 181L400 158L480 153L560 192L640 155L720 149L800 177L880 173L960 170L960 0L880 0L800 0L720 0L640 0L560 0L480 0L400 0L320 0L240 0L160 0L80 0L0 0Z" fill="#0c1102"></path><path d="M0 174L80 140L160 177L240 140L320 170L400 145L480 159L560 159L640 152L720 161L800 148L880 171L960 164L960 0L880 0L800 0L720 0L640 0L560 0L480 0L400 0L320 0L240 0L160 0L80 0L0 0Z" fill="#0f180b"></path><path d="M0 150L80 147L160 139L240 138L320 158L400 144L480 150L560 143L640 148L720 130L800 158L880 136L960 148L960 0L880 0L800 0L720 0L640 0L560 0L480 0L400 0L320 0L240 0L160 0L80 0L0 0Z" fill="#0f1d13"></path><path d="M0 143L80 128L160 111L240 135L320 129L400 130L480 139L560 119L640 141L720 139L800 132L880 116L960 140L960 0L880 0L800 0L720 0L640 0L560 0L480 0L400 0L320 0L240 0L160 0L80 0L0 0Z" fill="#0e231a"></path><path d="M0 120L80 98L160 103L240 107L320 116L400 131L480 112L560 102L640 117L720 117L800 120L880 116L960 123L960 0L880 0L800 0L720 0L640 0L560 0L480 0L400 0L320 0L240 0L160 0L80 0L0 0Z" fill="#0a2922"></path><path d="M0 99L80 90L160 102L240 111L320 115L400 115L480 115L560 113L640 95L720 99L800 109L880 102L960 89L960 0L880 0L800 0L720 0L640 0L560 0L480 0L400 0L320 0L240 0L160 0L80 0L0 0Z" fill="#042f2c"></path><path d="M0 86L80 75L160 101L240 95L320 76L400 86L480 90L560 83L640 78L720 76L800 84L880 85L960 100L960 0L880 0L800 0L720 0L640 0L560 0L480 0L400 0L320 0L240 0L160 0L80 0L0 0Z" fill="#003536"></path><path d="M0 85L80 68L160 84L240 65L320 74L400 67L480 83L560 59L640 83L720 77L800 85L880 76L960 68L960 0L880 0L800 0L720 0L640 0L560 0L480 0L400 0L320 0L240 0L160 0L80 0L0 0Z" fill="#003b42"></path><path d="M0 53L80 69L160 58L240 59L320 68L400 61L480 46L560 50L640 54L720 54L800 54L880 63L960 50L960 0L880 0L800 0L720 0L640 0L560 0L480 0L400 0L320 0L240 0L160 0L80 0L0 0Z" fill="#00404e"></path><path d="M0 38L80 45L160 51L240 42L320 45L400 54L480 53L560 54L640 41L720 48L800 37L880 54L960 44L960 0L880 0L800 0L720 0L640 0L560 0L480 0L400 0L320 0L240 0L160 0L80 0L0 0Z" fill="#00455b"></path><path d="M0 33L80 28L160 33L240 28L320 32L400 23L480 33L560 24L640 33L720 33L800 27L880 28L960 38L960 0L880 0L800 0L720 0L640 0L560 0L480 0L400 0L320 0L240 0L160 0L80 0L0 0Z" fill="#004a67"></path><path d="M0 14L80 11L160 10L240 19L320 8L400 16L480 9L560 18L640 10L720 20L800 18L880 17L960 13L960 0L880 0L800 0L720 0L640 0L560 0L480 0L400 0L320 0L240 0L160 0L80 0L0 0Z" fill="#154e72"></path></svg>