<?xml version="1.0" encoding="utf-8"?>
<!-- Generator: Adobe Illustrator 28.2.0, SVG Export Plug-In . SVG Version: 6.00 Build 0)  -->
<svg version="1.1" id="Layer_1" xmlns="http://www.w3.org/2000/svg" xmlns:xlink="http://www.w3.org/1999/xlink" x="0px" y="0px"
     viewBox="0 0 1608 2048" style="enable-background:new 0 0 1608 2048;" xml:space="preserve">
<style type="text/css">
    .st0{fill:url(#SVGID_1_);}
    .st1{fill:#0D0C0C;}
    .st2{fill:url(#SVGID_00000036952107399182956420000014654520723840693408_);}
    .st3{fill:#767676;}
    .st4{fill:url(#SVGID_00000072992345107575402900000013047473265137899930_);}
    .st5{fill:#555455;}
    .st6{fill:#0D0C0D;}
    .st7{fill:url(#SVGID_00000110464306883000602980000017569282935890803108_);}
    .st8{fill:url(#SVGID_00000109734271858431380550000014916139965349766569_);}
    .st9{fill:url(#SVGID_00000109002444915101517280000002674261775116280458_);}
    .st10{fill:#3F3F40;}
    .st11{fill:url(#SVGID_00000132080934283163051510000009611740070109559952_);}
    .st12{fill:url(#SVGID_00000155112515692426276710000016635880758382115256_);}
</style>
<linearGradient id="SVGID_1_" gradientUnits="userSpaceOnUse" x1="1628.4858" y1="1214.3611" x2="249.7869" y2="1682.8921" gradientTransform="matrix(1 0 0 -1 0 2048)">
    <stop  offset="0" style="stop-color:#302F30"/>
    <stop  offset="1" style="stop-color:#616061"/>
</linearGradient>
<path class="st0" d="M1360.5,113.1l2.2,3.8c-0.7,9.3-1.9,26.2-3.2,35c18.8-1.1,40.4-0.4,59.5-0.4l73-0.3l52.6-0.1
    c12.2-0.1,34.6-2.6,44.5,5.5c5.7,4.6,6.9,11.2,6.7,18.1c0.2,47.6-0.1,95.5-0.1,143.1l-0.4,275.2l-0.2,236.1l-0.1,67.7
    c0,11.8,0.3,23.8,0.1,35.6c-0.4,23-15.4,22.7-33.2,22.8l-517.5-0.1l-189.9,0.1c0,14.4,0.9,44.4-0.5,57.9c-1.4-8.5-0.6-48.1-0.5-58.4
    c-10.1-0.9-90.4-2-96.3,0l-5.3,0.5c-15.8-0.7-35.6-0.1-51.9-0.1l-103.8,0l-327.7,0c-54,0-114.6,1.4-168.1-0.2
    c-20.8,1-49.8,0.6-70.9-0.2c-3.7-0.1-9.9-3.2-12.8-5.8c-4.7-4.2-4.5-8.8-4.6-14.9c-0.5-15.7-0.3-31.6-0.3-47.3l0-83.4l0.1-254.7
    l0-248.8l0-83c0-14.9-0.1-30,0.3-44.9c0.1-5.8,1.5-11.2,5.6-15.3c1.9-2.1,7-5.4,9.9-5.4c70.2-1.5,140.8,0.3,211.1-0.8
    c3.5-0.1,6,0.3,8.3-2.2c1.3,3.3,0.2,2,3.8,3.7c2.5-0.4,2.6-0.5,4.9-1.5l0.5-2.1c0.6,1.6,0.5,1.2,1.8,2.5c27.1,0.7,56.7,0.2,83.9,0.2
    L503,151l183,0c12.7,0,109.6,0.8,112.7-1.2l1.2-7.2l0.2,8.1l3.7,0l4.5,0.4c31.7-0.6,65.2-0.1,97-0.1l212.5,0.1l147.7,0.1
    c26.1,0,59.2-0.9,84.8,0.5c2.7-9.9,4-26.9,6.5-34.1l-0.5-3L1360.5,113.1z"/>
<path class="st1" d="M35.1,172.6c17,1.3,44.9,0.4,62.4,0.3l106.6-0.1l357.9,0.2l643.1,0.5l367.6-0.4c0.7,68.5-2,142.1,0.3,209.8
    c-0.4,11.5-0.8,36.1,0.1,47.3c-0.8,42.6,0,86.6,0.1,129.3l-0.2,238.5c0,42.9,1.4,93.5-0.3,135.8c-96.5,1.1-194,0.1-290.6,0.1
    L675.7,934l-249.9-0.2l-79-0.1c-7.6,0-29.1-0.5-34.8,0.2c-6.5-0.9-22.8-0.7-29.7-0.7l-50.7,0.1c-63.8,0.1-133.4,1.4-196.8-0.4
    c0.4-23.1,0.7-52.4-0.1-75.3c0.9-21.6,0-51.6,0-73.9l0-150.6L35.1,172.6z"/>
<linearGradient id="SVGID_00000128445889449838129610000006179231964268575376_" gradientUnits="userSpaceOnUse" x1="119.5086" y1="1061.0374" x2="381.5177" y2="1769.2904" gradientTransform="matrix(1 0 0 -1 0 2048)">
    <stop  offset="0" style="stop-color:#5D5D5D"/>
    <stop  offset="1" style="stop-color:#8B8A8B"/>
</linearGradient>
<path style="fill:url(#SVGID_00000128445889449838129610000006179231964268575376_);" d="M256.7,148.2c0.6,1.6,0.5,1.2,1.8,2.5
    c27.1,0.7,56.7,0.2,83.9,0.2L503,151l183,0c12.7,0,109.6,0.8,112.7-1.2l1.2-7.2l0.2,8.1c10.6,6.4,28.7-1.4,37.1,2.9
    c-0.3,5.3-2.6,8.9-6,12.9c-6.4,3.5-101.5,0.2-118.5,2.5c-6.2,0.2-12.6,0-18.8,0.1c-59.7,0.9-119.9-1.4-179.6,0
    c3.2,1.8,7.7,0.4,14,2.9l-364-0.1l-89.1,0c-6.7,0-35.1-0.3-40.2,0.7l-0.1,460.5l0,150.6c0,22.3,0.9,52.3,0,73.9
    c0.8,22.9,0.5,52.2,0.1,75.3c63.4,1.8,133,0.5,196.8,0.4l50.7-0.1c6.9,0,23.2-0.3,29.7,0.7c-18,2.1-38.2-0.8-56.3,3.3
    c-6.9,1.6-38.8,1.1-42.2,3c2.4,1.9,2,0.9,3,3.3c-10.4,5.1-35.8,0.3-44.9,2.7c-29.3,7.8-39.9,7.8-68.7,1.2
    c-9.2-2.1-35.9,6.5-45.7,5.3c-3,0-1.5-2.2-6.7-0.2l0.1,1c9.8,0,42.3-0.9,49.9,1.3c-20.8,1-49.8,0.6-70.9-0.2
    c-3.7-0.1-9.9-3.2-12.8-5.8c-4.7-4.2-4.5-8.8-4.6-14.9c-0.5-15.7-0.3-31.6-0.3-47.3l0-83.4l0.1-254.7l0-248.8l0-83
    c0-14.9-0.1-30,0.3-44.9c0.1-5.8,1.5-11.2,5.6-15.3c1.9-2.1,7-5.4,9.9-5.4c70.2-1.5,140.8,0.3,211.1-0.8c3.5-0.1,6,0.3,8.3-2.2
    c1.3,3.3,0.2,2,3.8,3.7c2.5-0.4,2.6-0.5,4.9-1.5L256.7,148.2z"/>
<path class="st3" d="M256.7,148.2c0.6,1.6,0.5,1.2,1.8,2.5c27.1,0.7,56.7,0.2,83.9,0.2L503,151l183,0c12.7,0,109.6,0.8,112.7-1.2
    l1.2-7.2l0.2,8.1c10.6,6.4,28.7-1.4,37.1,2.9c-0.3,5.3-2.6,8.9-6,12.9c-6.4,3.5-101.5,0.2-118.5,2.5c-6.2,0.2-12.6,0-18.8,0.1
    c-59.7,0.9-119.9-1.4-179.6,0c-15.2-0.9-35.1-0.3-50.7-0.3l-93.5,0l-286.9-0.1c3.7-3,198,0.5,222.4-1.4c-5.5-0.7-18.7-0.3-24.7-0.3
    l-46.9,0l-164.9-0.1c-12.3-0.1-24.6-0.4-36.9,0.9c-3.2,0.3-6.3,0.8-9.6,0.3c-0.4-2.8-0.6-1.5,1.2-4.1c5.6-2.5,16.4-11.6,20-11.7
    c68.5-2.2,139,1.6,207.4-0.4c2.5-0.4,2.6-0.5,4.9-1.5L256.7,148.2z"/>
<linearGradient id="SVGID_00000115502105852272660780000013250250924688964492_" gradientUnits="userSpaceOnUse" x1="90.6888" y1="1905.1339" x2="380.9476" y2="1277.3329" gradientTransform="matrix(1 0 0 -1 0 2048)">
    <stop  offset="0" style="stop-color:#000000"/>
    <stop  offset="1" style="stop-color:#242526"/>
</linearGradient>
<path style="fill:url(#SVGID_00000115502105852272660780000013250250924688964492_);" d="M30,168.8c10.4-1,40.8-0.1,53.2-0.2
    l286.9,0.1l93.5,0c15.5,0,35.5-0.6,50.7,0.3c3.2,1.8,7.7,0.4,14,2.9l-364-0.1l-89.1,0c-6.7,0-35.1-0.3-40.2,0.7l-0.1,460.5l0,150.6
    c0,22.3,0.9,52.3,0,73.9c-1.1,10.6,1.1,72.7-3.2,75.2c-2.9-5.8-1.8-73.2-1.8-85.3L30,686.1L30,168.8z"/>
<path class="st5" d="M1572.7,173.2l4.4,0.2c2.5,3.8,1.4,192.6,0,210.7c-2-2.5-2.1-6.8-2.5-10.2l-0.1,2.8l-0.9,0.4l-0.6,5.8
    C1570.7,315.3,1573.3,241.7,1572.7,173.2z"/>
<path class="st6" d="M514.3,169.1c59.7-1.4,119.9,0.9,179.6,0c6.2-0.1,12.6,0.2,18.8-0.1l1.1,0.1c8.7,0.8,22.8,0.5,31.9,0.5
    l52.4,0.1c7,0,28-0.7,33.7,1.3c-8.6,1.7-26,1.3-35.5,1.3l-56.3-0.1L528.3,172C522,169.5,517.6,170.9,514.3,169.1z"/>
<path class="st5" d="M1573,383l0.6-5.8l0.9-0.4l0.1-2.8c0.4,3.3,0.6,7.7,2.5,10.2c0.7,10.8,1,46.9-0.6,56.6l-1.3,0.3
    c-2.4-4.8-0.3-8-2.2-10.7C1572.2,419.1,1572.5,394.6,1573,383z"/>
<path class="st6" d="M1360.5,113.1l2.2,3.8c-0.7,9.3-1.9,26.2-3.2,35l-1.6,0.2c-2.9-7.1,2.8-28.1,1.4-35.2l-1.3,1.1l-1.1-0.3l-0.5-3
    L1360.5,113.1z"/>
<linearGradient id="SVGID_00000075153416568461497280000010903859608189215898_" gradientUnits="userSpaceOnUse" x1="908.0988" y1="620.0552" x2="697.6746" y2="595.2453" gradientTransform="matrix(1 0 0 -1 0 2048)">
    <stop  offset="0" style="stop-color:#2F2F30"/>
    <stop  offset="1" style="stop-color:#616161"/>
</linearGradient>
<path style="fill:url(#SVGID_00000075153416568461497280000010903859608189215898_);" d="M752.1,1925.6l0-611l-0.1-212.5
    c0-38.8-0.8-80.8,0.2-119.4c-0.4-7.8-0.1-19.5-0.1-27.5l5.3-0.5c5.8-2,86.2-0.9,96.3,0c0,10.4-0.9,50,0.5,58.4
    c1.1,28.9,0.1,62.8,0,92.3l-0.1,170.5l-0.1,438.4c0,70-0.7,141.2-0.1,211.3"/>
<linearGradient id="SVGID_00000161607317292425178180000001029330585358466229_" gradientUnits="userSpaceOnUse" x1="752.217" y1="121.0969" x2="751.9074" y2="121.0604" gradientTransform="matrix(1 0 0 -1 0 2048)">
    <stop  offset="0" style="stop-color:#2F2F30"/>
    <stop  offset="1" style="stop-color:#616161"/>
</linearGradient>
<path style="fill:url(#SVGID_00000161607317292425178180000001029330585358466229_);" d="M752.1,1928.3l0-2.7"/>
<path class="st6" d="M757.3,954.6c5.5,0.7,10.4,0.7,15.9,0.8c-0.8,8.5-1.3,15.9-3.3,24.2c-0.1-4.8-0.6-13.6,0.7-17.8
    c0.9-2.9,1.1-1.4-0.2-4.2c-3.2-1.6-3.5-1.5-7.2-1.2c-11.6,8.3-7.3,108.7-9.7,128.4l-0.8-68.8c-0.1-7.5,0.2-26.5-0.7-33.3
    c-0.4-7.8-0.1-19.5-0.1-27.5L757.3,954.6z"/>
<path class="st3" d="M775.7,1008.7c0.9,6.1-1.6,20.3-1.4,30.9c1.4-4.4,1.8-8.7,6.8-9.8c2.3,1.9,3,11,3.5,14.6c1.9-1.1,1-0.4,2-3.2
    c4.1,2.6,4.2,11.1,1.8,14.9l-1.3-0.2l-1.1-3.8c-0.4,17.5,1,28.3,1.2,44.2l0.5,146.6c0.9-1.9,1.6-5.4,2.1-7.5
    c0.7,1.4-2.6,31.9-2.8,36.2c-0.9,14.2,2.7,38.6-0.6,51.9c-3.3,13.4,1.9,72.4-5.4,78c-7-3.4-1.1-46.6-6.3-56.3l-0.6,0.5
    c0.8,9.3,1.3,18.6,1.4,28c-1.4,22.1-1.8,44.2-1.1,66.3c0.2,5.9,3.2,35.5,0.2,37.8c-5-8-2.9-137.9-2.9-156.2l0.3-212.3
    C772.1,1083.9,768.3,1030.4,775.7,1008.7z"/>
<path class="st5" d="M792.3,1010.5c7.5,14.8,2.8,67.1,3.8,85c2.8,51.4,2,103.6,1.8,155.1c0,3.5-0.6,8.1-0.3,11.4
    c2,22.2-0.4,44.3,1.5,66.4l-1.3,0l1,0.3c-4.9-4.2-1.7-7.3-4-10.4l0.2,1.6c-0.2,2.9,0,4.2-1.2,6.9l-1.4-1.3
    c-4.2-10.8,2.4-55.7-2-71.1c1.4-10.6-1.7-30.8-0.8-40c4.5-43.8-0.1-87.7-0.5-131C789.1,1072.9,790.2,1016.4,792.3,1010.5z"/>
<linearGradient id="SVGID_00000168102770096507204060000013936890954957888929_" gradientUnits="userSpaceOnUse" x1="839.6642" y1="1994.2649" x2="777.4612" y2="1949.436" gradientTransform="matrix(1 0 0 -1 0 2048)">
    <stop  offset="0" style="stop-color:#1A191A"/>
    <stop  offset="1" style="stop-color:#3F3E3F"/>
</linearGradient>
<path style="fill:url(#SVGID_00000168102770096507204060000013936890954957888929_);" d="M780.7,34.1C779,11.2,798,12.4,815.5,15
    c10.5,4.5,11.8,8.2,11.5,19.7l-0.1,4.3c-4.8,4.1-12,1.9-19,2c-1.2,24.9-0.7,49.7-0.7,74.7c0,3.8,0.2,8.1-0.1,11.8
    c0.3,7.9,0.7,15.8,1.2,23.7l-4.5-0.4l-3.7,0l-0.2-8.1c-0.1-11.3,0-22.5,0.2-33.8c-0.8-22.3,0.6-45.3-0.7-67.6
    c-6.2-0.4-15.4,2-19.3-2.7L780.7,34.1z"/>
<path class="st5" d="M780.7,34.1C779,11.2,798,12.4,815.5,15c-6.7,2.2-9.5,10.4-18.8,17.2C791.3,32.9,786,33.5,780.7,34.1z"/>
<path class="st10" d="M796.6,32.2c9.3-6.8,12.1-14.9,18.8-17.2c10.5,4.5,11.8,8.2,11.5,19.7l-1.2-2.9c-4.1-2.4-20.8,0.5-27.8,0.4
    L796.6,32.2z"/>
<path class="st5" d="M800.1,108.9c1.2,13.6,0.6,23.8,3.9,37.2l-0.2,4.7l-3.7,0l-0.2-8.1C799.8,131.4,799.9,120.1,800.1,108.9z"/>
<path class="st10" d="M804,146.1c0.3-8.1,0-11.1,3.1-18.6c0.3,7.9,0.7,15.8,1.2,23.7l-4.5-0.4L804,146.1z"/>
<linearGradient id="SVGID_00000061453774781371306790000008543852120763752125_" gradientUnits="userSpaceOnUse" x1="1389.7896" y1="1960.2936" x2="1349.8595" y2="2010.084" gradientTransform="matrix(1 0 0 -1 0 2048)">
    <stop  offset="0" style="stop-color:#070607"/>
    <stop  offset="1" style="stop-color:#28282A"/>
</linearGradient>
<path style="fill:url(#SVGID_00000061453774781371306790000008543852120763752125_);" d="M1347.2,35.2c0.3-2.1,0.2-4.7,0.5-6.9
    c1.4-13.6,17.5-15.3,28-13.8c4.3,0.7,7.5,1.1,11.7,2.4c8.4,6.1,6.7,15,6.6,24.3l-20.6-0.2c-3.9,24.8-6.4,52.2-10.6,76l-2.2-3.8
    l-4.2,1.6c3.2-15,4.2-40.5,7.6-58.8c0.2-4.7,0.7-10.1,1.1-14.9c-4.2,0.1-14.7,1-17.4-1.8L1347.2,35.2z"/>
<path class="st5" d="M1347.2,35.2c0.3-2.1,0.2-4.7,0.5-6.9c1.4-13.6,17.5-15.3,28-13.8c-2.5,2.1-4.4,6.5-6.1,9.5
    C1363.2,35.3,1354.6,31.5,1347.2,35.2z"/>
<path class="st5" d="M1363.9,55.9c2,25,0.1,32-3.4,57.2l-4.2,1.6C1359.6,99.8,1360.5,74.2,1363.9,55.9z"/>
<path class="st10" d="M1375.7,14.4c4.3,0.7,7.5,1.1,11.7,2.4c-4.1,0.2-5.9-0.2-9,2.4c-3.4,8.5,0.6,7.1-9.6,12.5
    c-7.2,3.8-16.4,2.7-21.1,7.5l-0.4-4c7.4-3.7,16,0.1,22.4-11.2C1371.3,20.9,1373.2,16.5,1375.7,14.4z"/>
<linearGradient id="SVGID_00000054265762469634136090000002356474582082907556_" gradientUnits="userSpaceOnUse" x1="243.0022" y1="2002.6644" x2="233.7532" y2="2024.5592" gradientTransform="matrix(1 0 0 -1 0 2048)">
    <stop  offset="0" style="stop-color:#060708"/>
    <stop  offset="1" style="stop-color:#39383A"/>
</linearGradient>
<path style="fill:url(#SVGID_00000054265762469634136090000002356474582082907556_);" d="M214.1,37.2c-2.7-23.6,11.7-24.6,30.7-22.9
    c19.1,4.3,14.7,10.8,17.1,26.8l-18.1,0l-9.1,0c-4.7,0-16.2,0.4-20.1-1.4L214.1,37.2z"/>
<path class="st5" d="M214.1,37.2c-2.7-23.6,11.7-24.6,30.7-22.9c-1.6,0.4-0.9,0-2.3,1.1c1.4,0.3,2.6,0.6,3.9,1
    c-6.6,4.4-10,9.5-15.9,14.2C226.6,33.8,218.2,34.5,214.1,37.2z"/>
<path class="st6" d="M234.7,41.1l9.1,0c0.7,18.2,3.9,40.6,5.8,58.9c1.2,11.8,3.9,37.8,7.1,48.3l-0.5,2.1c-2.4,1-2.4,1.1-4.9,1.5
    c-3.6-1.7-2.5-0.4-3.8-3.7c-1.6-20.8-4.7-41.7-6.8-62.5c-1.3-5.3-4-30.6-4.9-37.5L234.7,41.1z"/>
<path class="st5" d="M240.7,85.7l4.5,4.4c0.3,16.3,7.6,40.8,5.6,58.1c-0.3,2.4-0.4,1.8,0.5,3.7c-3.6-1.7-2.5-0.4-3.8-3.7
    C245.8,127.5,242.7,106.5,240.7,85.7z"/>
<path class="st10" d="M235.8,48.2c8.2,3.3,8.9,32.5,9.4,41.9l-4.5-4.4C239.3,80.4,236.7,55.1,235.8,48.2z"/>
</svg>