<?xml version="1.0" standalone="no"?>
<svg xmlns:xlink="http://www.w3.org/1999/xlink" id="wave" style="transform:rotate(180deg); transition: 0.3s" viewBox="0 0 1440 220" version="1.1" xmlns="http://www.w3.org/2000/svg"><defs><linearGradient id="sw-gradient-0" x1="0" x2="0" y1="1" y2="0"><stop stop-color="rgba(0, 0, 0, 1)" offset="0%"/><stop stop-color="rgba(69.621, 20.551, 117.217, 1)" offset="100%"/></linearGradient></defs><path style="transform:translate(0, 0px); opacity:1" fill="url(#sw-gradient-0)" d="M0,154L10,150.3C20,147,40,139,60,124.7C80,110,100,88,120,88C140,88,160,110,180,99C200,88,220,44,240,36.7C260,29,280,59,300,77C320,95,340,103,360,99C380,95,400,81,420,95.3C440,110,460,154,480,154C500,154,520,110,540,102.7C560,95,580,125,600,124.7C620,125,640,95,660,77C680,59,700,51,720,58.7C740,66,760,88,780,84.3C800,81,820,51,840,58.7C860,66,880,110,900,110C920,110,940,66,960,58.7C980,51,1000,81,1020,77C1040,73,1060,37,1080,29.3C1100,22,1120,44,1140,44C1160,44,1180,22,1200,33C1220,44,1240,88,1260,99C1280,110,1300,88,1320,80.7C1340,73,1360,81,1380,95.3C1400,110,1420,132,1430,143L1440,154L1440,220L1430,220C1420,220,1400,220,1380,220C1360,220,1340,220,1320,220C1300,220,1280,220,1260,220C1240,220,1220,220,1200,220C1180,220,1160,220,1140,220C1120,220,1100,220,1080,220C1060,220,1040,220,1020,220C1000,220,980,220,960,220C940,220,920,220,900,220C880,220,860,220,840,220C820,220,800,220,780,220C760,220,740,220,720,220C700,220,680,220,660,220C640,220,620,220,600,220C580,220,560,220,540,220C520,220,500,220,480,220C460,220,440,220,420,220C400,220,380,220,360,220C340,220,320,220,300,220C280,220,260,220,240,220C220,220,200,220,180,220C160,220,140,220,120,220C100,220,80,220,60,220C40,220,20,220,10,220L0,220Z"/><defs><linearGradient id="sw-gradient-1" x1="0" x2="0" y1="1" y2="0"><stop stop-color="rgba(0, 0, 0, 1)" offset="0%"/><stop stop-color="rgba(48.991, 12.074, 76.234, 1)" offset="100%"/></linearGradient></defs><path style="transform:translate(0, 50px); opacity:0.9" fill="url(#sw-gradient-1)" d="M0,0L10,25.7C20,51,40,103,60,117.3C80,132,100,110,120,84.3C140,59,160,29,180,25.7C200,22,220,44,240,58.7C260,73,280,81,300,84.3C320,88,340,88,360,106.3C380,125,400,161,420,168.7C440,176,460,154,480,146.7C500,139,520,147,540,124.7C560,103,580,51,600,44C620,37,640,73,660,73.3C680,73,700,37,720,44C740,51,760,103,780,117.3C800,132,820,110,840,117.3C860,125,880,161,900,176C920,191,940,183,960,154C980,125,1000,73,1020,55C1040,37,1060,51,1080,62.3C1100,73,1120,81,1140,84.3C1160,88,1180,88,1200,91.7C1220,95,1240,103,1260,88C1280,73,1300,37,1320,47.7C1340,59,1360,117,1380,117.3C1400,117,1420,59,1430,29.3L1440,0L1440,220L1430,220C1420,220,1400,220,1380,220C1360,220,1340,220,1320,220C1300,220,1280,220,1260,220C1240,220,1220,220,1200,220C1180,220,1160,220,1140,220C1120,220,1100,220,1080,220C1060,220,1040,220,1020,220C1000,220,980,220,960,220C940,220,920,220,900,220C880,220,860,220,840,220C820,220,800,220,780,220C760,220,740,220,720,220C700,220,680,220,660,220C640,220,620,220,600,220C580,220,560,220,540,220C520,220,500,220,480,220C460,220,440,220,420,220C400,220,380,220,360,220C340,220,320,220,300,220C280,220,260,220,240,220C220,220,200,220,180,220C160,220,140,220,120,220C100,220,80,220,60,220C40,220,20,220,10,220L0,220Z"/><defs><linearGradient id="sw-gradient-2" x1="0" x2="0" y1="1" y2="0"><stop stop-color="rgba(0, 0, 0, 1)" offset="0%"/><stop stop-color="rgba(86.779, 14.063, 103.556, 1)" offset="100%"/></linearGradient></defs><path style="transform:translate(0, 100px); opacity:0.8" fill="url(#sw-gradient-2)" d="M0,132L10,143C20,154,40,176,60,187C80,198,100,198,120,179.7C140,161,160,125,180,106.3C200,88,220,88,240,99C260,110,280,132,300,128.3C320,125,340,95,360,99C380,103,400,139,420,157.7C440,176,460,176,480,168.7C500,161,520,147,540,117.3C560,88,580,44,600,22C620,0,640,0,660,3.7C680,7,700,15,720,29.3C740,44,760,66,780,62.3C800,59,820,29,840,18.3C860,7,880,15,900,36.7C920,59,940,95,960,110C980,125,1000,117,1020,128.3C1040,139,1060,169,1080,157.7C1100,147,1120,95,1140,66C1160,37,1180,29,1200,47.7C1220,66,1240,110,1260,106.3C1280,103,1300,51,1320,29.3C1340,7,1360,15,1380,29.3C1400,44,1420,66,1430,77L1440,88L1440,220L1430,220C1420,220,1400,220,1380,220C1360,220,1340,220,1320,220C1300,220,1280,220,1260,220C1240,220,1220,220,1200,220C1180,220,1160,220,1140,220C1120,220,1100,220,1080,220C1060,220,1040,220,1020,220C1000,220,980,220,960,220C940,220,920,220,900,220C880,220,860,220,840,220C820,220,800,220,780,220C760,220,740,220,720,220C700,220,680,220,660,220C640,220,620,220,600,220C580,220,560,220,540,220C520,220,500,220,480,220C460,220,440,220,420,220C400,220,380,220,360,220C340,220,320,220,300,220C280,220,260,220,240,220C220,220,200,220,180,220C160,220,140,220,120,220C100,220,80,220,60,220C40,220,20,220,10,220L0,220Z"/><defs><linearGradient id="sw-gradient-3" x1="0" x2="0" y1="1" y2="0"><stop stop-color="rgba(0, 0, 0, 1)" offset="0%"/><stop stop-color="rgba(71.894, 11.874, 110.386, 1)" offset="100%"/></linearGradient></defs><path style="transform:translate(0, 150px); opacity:0.7" fill="url(#sw-gradient-3)" d="M0,22L10,33C20,44,40,66,60,77C80,88,100,88,120,80.7C140,73,160,59,180,55C200,51,220,59,240,84.3C260,110,280,154,300,172.3C320,191,340,183,360,154C380,125,400,73,420,69.7C440,66,460,110,480,135.7C500,161,520,169,540,165C560,161,580,147,600,132C620,117,640,103,660,91.7C680,81,700,73,720,58.7C740,44,760,22,780,18.3C800,15,820,29,840,36.7C860,44,880,44,900,36.7C920,29,940,15,960,25.7C980,37,1000,73,1020,88C1040,103,1060,95,1080,80.7C1100,66,1120,44,1140,62.3C1160,81,1180,139,1200,146.7C1220,154,1240,110,1260,91.7C1280,73,1300,81,1320,102.7C1340,125,1360,161,1380,146.7C1400,132,1420,66,1430,33L1440,0L1440,220L1430,220C1420,220,1400,220,1380,220C1360,220,1340,220,1320,220C1300,220,1280,220,1260,220C1240,220,1220,220,1200,220C1180,220,1160,220,1140,220C1120,220,1100,220,1080,220C1060,220,1040,220,1020,220C1000,220,980,220,960,220C940,220,920,220,900,220C880,220,860,220,840,220C820,220,800,220,780,220C760,220,740,220,720,220C700,220,680,220,660,220C640,220,620,220,600,220C580,220,560,220,540,220C520,220,500,220,480,220C460,220,440,220,420,220C400,220,380,220,360,220C340,220,320,220,300,220C280,220,260,220,240,220C220,220,200,220,180,220C160,220,140,220,120,220C100,220,80,220,60,220C40,220,20,220,10,220L0,220Z"/></svg>