<svg id="visual" viewBox="0 0 900 600" width="900" height="600" xmlns="http://www.w3.org/2000/svg" xmlns:xlink="http://www.w3.org/1999/xlink" version="1.1"><rect x="0" y="0" width="900" height="600" fill="#010801ff"></rect><path d="M0 258L10.7 269.5C21.3 281 42.7 304 64.2 316.7C85.7 329.3 107.3 331.7 128.8 330.7C150.3 329.7 171.7 325.3 193 309.5C214.3 293.7 235.7 266.3 257 263.5C278.3 260.7 299.7 282.3 321.2 279.2C342.7 276 364.3 248 385.8 239.3C407.3 230.7 428.7 241.3 450 247.3C471.3 253.3 492.7 254.7 514.2 267C535.7 279.3 557.3 302.7 578.8 304.2C600.3 305.7 621.7 285.3 643 293.3C664.3 301.3 685.7 337.7 707 349.8C728.3 362 749.7 350 771.2 345.2C792.7 340.3 814.3 342.7 835.8 331.5C857.3 320.3 878.7 295.7 889.3 283.3L900 271L900 0L889.3 0C878.7 0 857.3 0 835.8 0C814.3 0 792.7 0 771.2 0C749.7 0 728.3 0 707 0C685.7 0 664.3 0 643 0C621.7 0 600.3 0 578.8 0C557.3 0 535.7 0 514.2 0C492.7 0 471.3 0 450 0C428.7 0 407.3 0 385.8 0C364.3 0 342.7 0 321.2 0C299.7 0 278.3 0 257 0C235.7 0 214.3 0 193 0C171.7 0 150.3 0 128.8 0C107.3 0 85.7 0 64.2 0C42.7 0 21.3 0 10.7 0L0 0Z" fill="#010307ff" stroke-linecap="round" stroke-linejoin="miter"></path></svg>