<svg id="visual" viewBox="0 0 900 600" width="900" height="600" xmlns="http://www.w3.org/2000/svg" xmlns:xlink="http://www.w3.org/1999/xlink" version="1.1"><g stroke-width="1" stroke-linejoin="bevel"><path d="M458 310L341.5 305L447 395Z" fill="#3b945e" stroke="#3b945e"></path><path d="M341.5 305L325.5 397L447 395Z" fill="#00606d" stroke="#00606d"></path><path d="M458 310L444 206L341.5 305Z" fill="#82a63e" stroke="#82a63e"></path><path d="M325.5 397L452 501L447 395Z" fill="#82a63e" stroke="#82a63e"></path><path d="M569.5 395L562.5 296L458 310Z" fill="#00294b" stroke="#00294b"></path><path d="M569.5 395L458 310L447 395Z" fill="#82a63e" stroke="#82a63e"></path><path d="M458 310L562.5 296L444 206Z" fill="#82a63e" stroke="#82a63e"></path><path d="M325.5 397L323.5 503L452 501Z" fill="#188869" stroke="#188869"></path><path d="M444 206L331.5 184L341.5 305Z" fill="#82a63e" stroke="#82a63e"></path><path d="M221 284L228 410L325.5 397Z" fill="#82a63e" stroke="#82a63e"></path><path d="M551.5 490L569.5 395L447 395Z" fill="#00294b" stroke="#00294b"></path><path d="M221 284L325.5 397L341.5 305Z" fill="#007b6f" stroke="#007b6f"></path><path d="M325.5 397L228 410L323.5 503Z" fill="#5e9e4f" stroke="#5e9e4f"></path><path d="M331.5 184L221 284L341.5 305Z" fill="#3b945e" stroke="#3b945e"></path><path d="M452 501L551.5 490L447 395Z" fill="#007b6f" stroke="#007b6f"></path><path d="M659 303L566.5 205L562.5 296Z" fill="#82a63e" stroke="#82a63e"></path><path d="M562.5 296L566.5 205L444 206Z" fill="#003757" stroke="#003757"></path><path d="M455 86L321.5 110L331.5 184Z" fill="#003757" stroke="#003757"></path><path d="M331.5 184L237 189L221 284Z" fill="#188869" stroke="#188869"></path><path d="M228 410L234 501L323.5 503Z" fill="#003757" stroke="#003757"></path><path d="M455 86L331.5 184L444 206Z" fill="#006e70" stroke="#006e70"></path><path d="M331.5 184L321.5 110L237 189Z" fill="#003757" stroke="#003757"></path><path d="M326.5 600L454 600L452 501Z" fill="#006e70" stroke="#006e70"></path><path d="M452 501L454 600L551.5 490Z" fill="#005368" stroke="#005368"></path><path d="M326.5 600L452 501L323.5 503Z" fill="#007b6f" stroke="#007b6f"></path><path d="M569.5 395L659 303L562.5 296Z" fill="#00294b" stroke="#00294b"></path><path d="M665 392L659 303L569.5 395Z" fill="#004561" stroke="#004561"></path><path d="M233 600L326.5 600L323.5 503Z" fill="#5e9e4f" stroke="#5e9e4f"></path><path d="M557.5 104L444 206L566.5 205Z" fill="#00294b" stroke="#00294b"></path><path d="M557.5 104L455 86L444 206Z" fill="#00294b" stroke="#00294b"></path><path d="M673 503L569.5 395L551.5 490Z" fill="#006e70" stroke="#006e70"></path><path d="M673 503L665 392L569.5 395Z" fill="#00606d" stroke="#00606d"></path><path d="M115.5 203L221 284L237 189Z" fill="#005368" stroke="#005368"></path><path d="M115.5 203L115.5 291L221 284Z" fill="#00606d" stroke="#00606d"></path><path d="M221 284L108.5 400L228 410Z" fill="#00606d" stroke="#00606d"></path><path d="M228 410L107.5 504L234 501Z" fill="#5e9e4f" stroke="#5e9e4f"></path><path d="M676 208L557.5 104L566.5 205Z" fill="#188869" stroke="#188869"></path><path d="M115.5 291L108.5 400L221 284Z" fill="#007b6f" stroke="#007b6f"></path><path d="M234 501L233 600L323.5 503Z" fill="#005368" stroke="#005368"></path><path d="M341.5 0L240 91L321.5 110Z" fill="#5e9e4f" stroke="#5e9e4f"></path><path d="M321.5 110L240 91L237 189Z" fill="#005368" stroke="#005368"></path><path d="M115.5 600L233 600L234 501Z" fill="#00294b" stroke="#00294b"></path><path d="M454 600L565.5 600L551.5 490Z" fill="#5e9e4f" stroke="#5e9e4f"></path><path d="M772.5 312L676 208L659 303Z" fill="#3b945e" stroke="#3b945e"></path><path d="M659 303L676 208L566.5 205Z" fill="#3b945e" stroke="#3b945e"></path><path d="M123.5 110L115.5 203L237 189Z" fill="#005368" stroke="#005368"></path><path d="M115.5 291L0 308L108.5 400Z" fill="#3b945e" stroke="#3b945e"></path><path d="M565.5 600L673 503L551.5 490Z" fill="#004561" stroke="#004561"></path><path d="M665 392L772.5 312L659 303Z" fill="#005368" stroke="#005368"></path><path d="M108.5 400L107.5 504L228 410Z" fill="#005368" stroke="#005368"></path><path d="M559.5 0L440 0L455 86Z" fill="#00294b" stroke="#00294b"></path><path d="M455 86L341.5 0L321.5 110Z" fill="#3b945e" stroke="#3b945e"></path><path d="M559.5 0L455 86L557.5 104Z" fill="#3b945e" stroke="#3b945e"></path><path d="M440 0L341.5 0L455 86Z" fill="#006e70" stroke="#006e70"></path><path d="M240 91L123.5 110L237 189Z" fill="#004561" stroke="#004561"></path><path d="M221 0L123.5 110L240 91Z" fill="#82a63e" stroke="#82a63e"></path><path d="M771.5 390L772.5 312L665 392Z" fill="#3b945e" stroke="#3b945e"></path><path d="M673 503L771.5 390L665 392Z" fill="#82a63e" stroke="#82a63e"></path><path d="M796.5 200L676 87L676 208Z" fill="#188869" stroke="#188869"></path><path d="M676 208L676 87L557.5 104Z" fill="#006e70" stroke="#006e70"></path><path d="M107.5 504L115.5 600L234 501Z" fill="#00294b" stroke="#00294b"></path><path d="M565.5 600L681 600L673 503Z" fill="#007b6f" stroke="#007b6f"></path><path d="M673 503L793.5 510L771.5 390Z" fill="#3b945e" stroke="#3b945e"></path><path d="M676 87L559.5 0L557.5 104Z" fill="#007b6f" stroke="#007b6f"></path><path d="M341.5 0L221 0L240 91Z" fill="#005368" stroke="#005368"></path><path d="M0 186L0 308L115.5 203Z" fill="#00294b" stroke="#00294b"></path><path d="M115.5 203L0 308L115.5 291Z" fill="#004561" stroke="#004561"></path><path d="M108.5 400L0 396L107.5 504Z" fill="#188869" stroke="#188869"></path><path d="M107.5 504L0 600L115.5 600Z" fill="#005368" stroke="#005368"></path><path d="M0 308L0 396L108.5 400Z" fill="#5e9e4f" stroke="#5e9e4f"></path><path d="M772.5 312L796.5 200L676 208Z" fill="#82a63e" stroke="#82a63e"></path><path d="M900 289L796.5 200L772.5 312Z" fill="#003757" stroke="#003757"></path><path d="M779.5 600L793.5 510L673 503Z" fill="#005368" stroke="#005368"></path><path d="M900 406L900 289L772.5 312Z" fill="#007b6f" stroke="#007b6f"></path><path d="M123.5 110L0 186L115.5 203Z" fill="#3b945e" stroke="#3b945e"></path><path d="M0 90L0 186L123.5 110Z" fill="#188869" stroke="#188869"></path><path d="M0 396L0 508L107.5 504Z" fill="#003757" stroke="#003757"></path><path d="M676 87L662 0L559.5 0Z" fill="#5e9e4f" stroke="#5e9e4f"></path><path d="M788.5 0L662 0L676 87Z" fill="#3b945e" stroke="#3b945e"></path><path d="M221 0L109.5 0L123.5 110Z" fill="#82a63e" stroke="#82a63e"></path><path d="M681 600L779.5 600L673 503Z" fill="#00606d" stroke="#00606d"></path><path d="M796.5 200L791.5 84L676 87Z" fill="#007b6f" stroke="#007b6f"></path><path d="M0 508L0 600L107.5 504Z" fill="#00294b" stroke="#00294b"></path><path d="M109.5 0L0 90L123.5 110Z" fill="#188869" stroke="#188869"></path><path d="M900 406L772.5 312L771.5 390Z" fill="#005368" stroke="#005368"></path><path d="M796.5 200L900 88L791.5 84Z" fill="#005368" stroke="#005368"></path><path d="M900 406L771.5 390L793.5 510Z" fill="#5e9e4f" stroke="#5e9e4f"></path><path d="M900 495L900 406L793.5 510Z" fill="#003757" stroke="#003757"></path><path d="M900 0L788.5 0L791.5 84Z" fill="#00294b" stroke="#00294b"></path><path d="M791.5 84L788.5 0L676 87Z" fill="#005368" stroke="#005368"></path><path d="M900 289L900 201L796.5 200Z" fill="#188869" stroke="#188869"></path><path d="M900 600L900 495L793.5 510Z" fill="#188869" stroke="#188869"></path><path d="M109.5 0L0 0L0 90Z" fill="#006e70" stroke="#006e70"></path><path d="M779.5 600L900 600L793.5 510Z" fill="#004561" stroke="#004561"></path><path d="M900 201L900 88L796.5 200Z" fill="#3b945e" stroke="#3b945e"></path><path d="M900 88L900 0L791.5 84Z" fill="#007b6f" stroke="#007b6f"></path></g></svg>